<?xml version="1.0" standalone="no"?>
<!DOCTYPE svg PUBLIC "-//W3C//DTD SVG 20010904//EN"
 "http://www.w3.org/TR/2001/REC-SVG-20010904/DTD/svg10.dtd">
<svg version="1.0" xmlns="http://www.w3.org/2000/svg"
 width="1080.000000pt" height="1080.000000pt" viewBox="0 0 1080.000000 1080.000000"
 preserveAspectRatio="xMidYMid meet">

<g transform="translate(0.000000,1080.000000) scale(0.100000,-0.100000)"
fill="#000000" stroke="none">
<path d="M3312 6158 l3 -2843 2843 -3 2842 -2 0 2845 0 2845 -2845 0 -2845 0
2 -2842z m3150 780 l3 -473 473 -3 472 -2 0 -305 0 -305 -475 0 -475 0 0 -470
0 -470 -305 0 -305 0 0 470 0 470 -470 0 -470 0 0 305 0 305 470 0 470 0 0
475 0 475 305 0 305 0 2 -472z"/>
<path d="M1800 4885 l0 -3085 3085 0 3085 0 0 370 0 370 -2715 0 -2715 0 0
2715 0 2715 -370 0 -370 0 0 -3085z"/>
</g>
</svg>
